<?xml version="1.0" standalone="no"?>
<!DOCTYPE svg PUBLIC "-//W3C//DTD SVG 20010904//EN"
 "http://www.w3.org/TR/2001/REC-SVG-20010904/DTD/svg10.dtd">
<svg version="1.0" xmlns="http://www.w3.org/2000/svg"
 width="50.000000pt" height="50.000000pt" viewBox="0 0 50.000000 50.000000"
 preserveAspectRatio="xMidYMid meet">

<g transform="translate(0.000000,50.000000) scale(0.100000,-0.100000)"
fill="#000000" stroke="none">
<path d="M172 481 c-167 -58 -221 -263 -104 -393 34 -38 100 -77 130 -78 8 0
12 22 12 79 l0 80 -32 3 c-30 3 -33 6 -36 40 -3 35 -2 37 30 40 32 3 33 5 38
55 8 79 55 114 131 98 27 -6 30 -10 27 -38 -2 -26 -8 -33 -30 -35 -33 -4 -51
-24 -46 -54 2 -18 10 -24 36 -26 33 -3 38 -14 26 -60 -5 -16 -14 -22 -35 -22
l-29 0 0 -80 c0 -89 1 -90 65 -61 88 40 156 162 140 249 -18 101 -85 179 -176
206 -66 20 -82 20 -147 -3z"/>
</g>
</svg>
