<?xml version="1.0" standalone="no"?>
<!DOCTYPE svg PUBLIC "-//W3C//DTD SVG 20010904//EN"
 "http://www.w3.org/TR/2001/REC-SVG-20010904/DTD/svg10.dtd">
<svg version="1.0" xmlns="http://www.w3.org/2000/svg"
 width="50.000000pt" height="50.000000pt" viewBox="0 0 50.000000 50.000000"
 preserveAspectRatio="xMidYMid meet">

<g transform="translate(0.000000,50.000000) scale(0.100000,-0.100000)"
fill="#000000" stroke="none">
<path d="M185 458 c-39 -14 -91 -53 -111 -84 -15 -23 -15 -25 14 -58 l31 -35
6 29 c10 47 39 60 127 60 106 0 118 -12 118 -118 0 -88 -13 -117 -60 -127
l-29 -6 35 -31 c33 -29 35 -29 58 -14 51 33 96 116 96 175 0 56 -23 107 -69
152 -63 64 -140 84 -216 57z"/>
<path d="M172 328 c-18 -18 -15 -87 4 -106 15 -15 16 -14 10 5 -16 50 33 93
89 79 27 -7 41 -41 31 -79 -7 -28 -50 -50 -79 -41 -19 6 -20 5 -5 -10 19 -19
88 -22 106 -4 16 16 16 140 0 156 -7 7 -40 12 -78 12 -38 0 -71 -5 -78 -12z
m152 -19 c-3 -5 -10 -7 -15 -3 -5 3 -7 10 -3 15 3 5 10 7 15 3 5 -3 7 -10 3
-15z"/>
<path d="M224 266 c-10 -26 4 -48 28 -44 17 2 23 10 23 28 0 18 -6 26 -23 28
-13 2 -25 -3 -28 -12z"/>
</g>
</svg>
