<?xml version="1.0" standalone="no"?>
<!DOCTYPE svg PUBLIC "-//W3C//DTD SVG 20010904//EN"
 "http://www.w3.org/TR/2001/REC-SVG-20010904/DTD/svg10.dtd">
<svg version="1.0" xmlns="http://www.w3.org/2000/svg"
 width="50.000000pt" height="50.000000pt" viewBox="0 0 50.000000 50.000000"
 preserveAspectRatio="xMidYMid meet">

<g transform="translate(0.000000,50.000000) scale(0.100000,-0.100000)"
fill="#000000" stroke="none">
<path d="M0 250 l0 -250 250 0 250 0 0 250 0 250 -250 0 -250 0 0 -250z m152
155 c10 -22 9 -29 -9 -46 -37 -37 -91 0 -72 49 12 33 65 31 81 -3z m-2 -210
l0 -125 -40 0 -40 0 0 118 c0 65 3 122 7 125 3 4 21 7 40 7 l33 0 0 -125z
m118 109 c8 -14 10 -14 21 0 14 16 66 21 96 10 31 -12 45 -59 45 -154 l0 -90
-40 0 -40 0 0 78 c0 80 -9 102 -42 102 -27 0 -38 -32 -38 -109 l0 -71 -40 0
-40 0 0 118 c0 65 3 122 7 125 12 13 62 7 71 -9z"/>
</g>
</svg>
