<?xml version="1.0" standalone="no"?>
<!DOCTYPE svg PUBLIC "-//W3C//DTD SVG 20010904//EN"
 "http://www.w3.org/TR/2001/REC-SVG-20010904/DTD/svg10.dtd">
<svg version="1.0" xmlns="http://www.w3.org/2000/svg"
 width="50.000000pt" height="50.000000pt" viewBox="0 0 50.000000 50.000000"
 preserveAspectRatio="xMidYMid meet">

<g transform="translate(0.000000,50.000000) scale(0.100000,-0.100000)"
fill="#000000" stroke="none">
<path d="M167 486 c-55 -21 -103 -61 -134 -114 -24 -40 -28 -58 -28 -123 0
-67 4 -81 30 -125 99 -159 326 -164 425 -8 101 160 -4 368 -192 380 -39 3 -77
-1 -101 -10z m61 -141 l39 -56 47 56 c26 30 52 55 58 55 12 0 0 -17 -56 -84
l-38 -46 56 -79 c31 -44 56 -83 56 -86 0 -3 -18 -5 -40 -5 -37 0 -42 4 -76 55
-20 30 -40 55 -43 55 -3 0 -29 -26 -58 -57 -69 -78 -77 -63 -9 17 l54 64 -54
79 c-30 43 -54 80 -54 83 0 2 18 4 39 4 36 0 42 -4 79 -55z"/>
<path d="M154 365 c14 -38 169 -245 183 -245 21 0 16 11 -77 143 -45 64 -89
117 -97 117 -9 0 -13 -6 -9 -15z"/>
</g>
</svg>
